<svg width="500" height="500" viewBox="0 0 500 500" fill="none" xmlns="http://www.w3.org/2000/svg">
<path d="M134.32 0C141.503 0 147.327 5.82319 147.327 13.0065V181.845C147.327 186.263 150.908 189.845 155.327 189.845H344.673C349.092 189.845 352.673 186.263 352.673 181.845V13.0065C352.673 5.82319 358.497 1.70208e-07 365.68 0H486.993C494.177 0 500 5.82319 500 13.0065V189.845C500 197.028 494.177 202.852 486.993 202.852H373.68C369.262 202.852 365.68 206.433 365.68 210.852V289.148C365.68 293.567 369.262 297.148 373.68 297.148H486.993C494.177 297.148 500 302.972 500 310.155V486.994C500 494.177 494.177 500 486.993 500H365.68C358.497 500 352.673 494.177 352.673 486.994V318.155C352.673 313.737 349.092 310.155 344.673 310.155H155.327C150.908 310.155 147.327 313.737 147.327 318.155V486.994C147.327 494.177 141.503 500 134.32 500H13.0068C5.82334 500 4.05906e-07 494.177 0 486.994V310.155C0 302.972 5.82334 297.148 13.0068 297.148H126.32C130.738 297.148 134.32 293.567 134.32 289.148V210.852C134.32 206.433 130.738 202.852 126.32 202.852H13.0068C5.82334 202.852 4.05906e-07 197.028 0 189.845V13.0065C0 5.82319 5.82334 1.70209e-07 13.0068 0L134.32 0Z" fill="#AEFD83"/>
</svg>
